<svg xmlns="http://www.w3.org/2000/svg" viewBox="0 0 800 200" width="800" height="200">
  <defs>
    <linearGradient id="bgGrad" x1="0%" y1="0%" x2="100%" y2="0%">
      <stop offset="0%" style="stop-color:#1f2937;stop-opacity:1" />
      <stop offset="100%" style="stop-color:#111827;stop-opacity:1" />
    </linearGradient>
    <linearGradient id="pinkGrad" x1="0%" y1="0%" x2="100%" y2="100%">
      <stop offset="0%" style="stop-color:#f9a8d4;stop-opacity:1" />
      <stop offset="100%" style="stop-color:#ec4899;stop-opacity:1" />
    </linearGradient>
    <linearGradient id="lightPink" x1="0%" y1="0%" x2="100%" y2="100%">
      <stop offset="0%" style="stop-color:#fce7f3;stop-opacity:1" />
      <stop offset="100%" style="stop-color:#fbcfe8;stop-opacity:1" />
    </linearGradient>
  </defs>

  <!-- Background -->
  <rect width="800" height="200" fill="url(#bgGrad)" rx="16"/>

  <!-- Bunny icon -->
  <g transform="translate(60, 100)">
    <!-- Pink box background -->
    <rect x="-50" y="-45" width="100" height="100" rx="20" fill="url(#pinkGrad)"/>

    <!-- Left ear -->
    <ellipse cx="-16" cy="-32" rx="8" ry="20" fill="white" opacity="0.9"/>
    <ellipse cx="-16" cy="-32" rx="4" ry="14" fill="url(#lightPink)"/>

    <!-- Right ear -->
    <ellipse cx="16" cy="-32" rx="8" ry="20" fill="white" opacity="0.9"/>
    <ellipse cx="16" cy="-32" rx="4" ry="14" fill="url(#lightPink)"/>

    <!-- Head -->
    <circle cx="0" cy="0" r="28" fill="white" opacity="0.95"/>

    <!-- Eyes -->
    <ellipse cx="-10" cy="-4" rx="5" ry="6" fill="#18181b"/>
    <ellipse cx="10" cy="-4" rx="5" ry="6" fill="#18181b"/>
    <circle cx="-8" cy="-6" r="2" fill="white"/>
    <circle cx="12" cy="-6" r="2" fill="white"/>

    <!-- Nose -->
    <ellipse cx="0" cy="8" rx="4" ry="3" fill="#be185d"/>

    <!-- Mouth -->
    <path d="M -6 14 Q 0 20 6 14" stroke="#be185d" stroke-width="2.5" fill="none" stroke-linecap="round"/>
  </g>

  <!-- Text: bunqueue -->
  <text x="150" y="125" font-family="system-ui, -apple-system, sans-serif" font-size="56" font-weight="bold" fill="white">
    bun<tspan fill="url(#pinkGrad)">queue</tspan>
  </text>

  <!-- Tagline -->
  <text x="152" y="160" font-family="system-ui, -apple-system, sans-serif" font-size="18" fill="#9ca3af">
    High-performance job queue for Bun
  </text>

  <!-- Queue visualization -->
  <g transform="translate(520, 85)">
    <!-- Queue boxes -->
    <rect x="0" y="0" width="40" height="30" rx="4" fill="#374151"/>
    <rect x="50" y="0" width="40" height="30" rx="4" fill="#374151"/>
    <rect x="100" y="0" width="40" height="30" rx="4" fill="#374151"/>
    <rect x="150" y="0" width="40" height="30" rx="4" fill="url(#pinkGrad)"/>

    <!-- Arrows -->
    <path d="M 45 15 L 48 15" stroke="#6b7280" stroke-width="2"/>
    <path d="M 95 15 L 98 15" stroke="#6b7280" stroke-width="2"/>
    <path d="M 145 15 L 148 15" stroke="#ec4899" stroke-width="2"/>

    <!-- Job icons inside boxes -->
    <circle cx="20" cy="15" r="6" fill="#6b7280"/>
    <circle cx="70" cy="15" r="6" fill="#6b7280"/>
    <circle cx="120" cy="15" r="6" fill="#6b7280"/>
    <circle cx="170" cy="15" r="6" fill="white"/>

    <!-- Processing indicator -->
    <path d="M 200 15 L 220 15" stroke="#ec4899" stroke-width="2" stroke-dasharray="4,2">
      <animate attributeName="stroke-dashoffset" from="0" to="12" dur="1s" repeatCount="indefinite"/>
    </path>
    <polygon points="225,15 218,10 218,20" fill="#ec4899"/>
  </g>

  <!-- Stats badges -->
  <g transform="translate(520, 130)">
    <rect x="0" y="0" width="70" height="24" rx="12" fill="#065f46"/>
    <text x="35" y="16" font-family="system-ui, sans-serif" font-size="11" fill="#6ee7b7" text-anchor="middle">SQLite</text>

    <rect x="80" y="0" width="70" height="24" rx="12" fill="#831843"/>
    <text x="115" y="16" font-family="system-ui, sans-serif" font-size="11" fill="#f9a8d4" text-anchor="middle">Cron</text>

    <rect x="160" y="0" width="70" height="24" rx="12" fill="#1e3a5f"/>
    <text x="195" y="16" font-family="system-ui, sans-serif" font-size="11" fill="#7dd3fc" text-anchor="middle">DLQ</text>
  </g>
</svg>
